<svg width="72" height="87" viewBox="0 0 72 87" fill="none" xmlns="http://www.w3.org/2000/svg">
<path d="M66.105 44.7485L71.9452 47.8592L71.9528 68.3679L49.4297 80.946C49.4573 80.8638 49.4798 80.786 49.5438 80.7224C49.7681 80.4998 50.1028 80.3354 50.3508 80.1262C50.8686 79.6896 51.3546 79.1769 51.8228 78.6882C52.7107 77.7615 53.4403 76.6793 54.1395 75.6097C56.0649 72.6641 57.0795 69.2994 58.06 65.9599L62.8284 63.3133L62.8021 53.7874L63.3772 53.5984L63.3526 45.3594L63.3993 45.0661C63.6184 45.0017 64.3727 45.4779 64.6243 45.6128L64.6762 45.6408C65.092 45.2732 65.6465 45.0704 66.105 44.7485Z" fill="#4F518C"/>
<path d="M63.3516 45.3593L63.3983 45.066C63.6173 45.0016 64.3717 45.4778 64.6232 45.6127L64.6752 45.6407L71.2298 49.0596C70.5139 49.5844 69.7304 49.9884 68.9599 50.4264L65.0934 52.6075L64.0997 53.1958C63.8751 53.3391 63.6396 53.5395 63.3762 53.5984L63.3516 45.3593Z" fill="#80A1E2"/>
<path d="M4.31302 60.7613C3.75278 59.664 3.19395 58.573 2.73646 57.4283C-0.41509 49.5405 -0.927469 40.5266 1.63288 32.4064C4.28149 24.006 9.88106 16.9256 17.2773 12.0893C18.0199 11.6038 18.8312 11.2106 19.6022 10.769L25.6577 7.35737L32.2664 3.63143L38.746 0L38.7186 10.0883L31.3573 14.2001L26.2015 17.1231C24.6633 17.9885 23.0013 18.7492 21.5674 19.7736C16.0675 23.7023 12.2186 29.7382 10.6679 36.2467C10.305 37.7697 9.98846 39.4095 9.99606 40.9803L9.94891 41.2277C9.17443 42.1772 8.52705 43.2087 7.90868 44.2627C6.42362 46.7934 5.34481 49.4007 4.76993 52.2819C4.47982 53.7357 4.36538 55.2233 4.28923 56.7014L4.27698 59.2166C4.29232 59.724 4.34933 60.2558 4.31302 60.7613Z" fill="#4F518C"/>
<path d="M9.94927 41.2275C9.92731 43.0007 9.87199 44.7925 10.0184 46.5611C10.5468 52.9416 13.0887 59.2114 17.6392 63.8282C19.2709 65.4836 21.0659 66.8927 23.0373 68.1338L27.7725 70.8353L34.2348 74.5474L38.7195 77.0461L58.0593 65.9599C57.0787 69.2994 56.0641 72.6642 54.1387 75.6098C53.4396 76.6794 52.71 77.7615 51.8221 78.6882C51.3539 79.1769 50.8678 79.6896 50.3501 80.1262C50.1021 80.3355 49.7673 80.4998 49.5431 80.7224C49.479 80.786 49.4565 80.8638 49.4289 80.946L49.4191 80.954L46.3517 82.7062L39.9171 86.3047L39.1553 86.75C39.0668 86.8061 38.8655 86.971 38.7751 86.9965C38.7405 87.0063 38.7026 86.9922 38.668 86.9823C38.5389 86.9454 38.3553 86.7912 38.2384 86.719L37.1601 86.0907L30.6913 82.4671L23.7272 78.5346C21.0086 77.0315 18.2556 75.5866 15.6944 73.8249C10.9764 70.5799 6.78097 65.921 4.31338 60.7611C4.3497 60.2556 4.29269 59.7238 4.27734 59.2164L4.28959 56.7011C4.36574 55.2231 4.48018 53.7355 4.7703 52.2817C5.34517 49.4005 6.42399 46.7932 7.90904 44.2625C8.52742 43.2085 9.17479 42.177 9.94927 41.2275Z" fill="#2C2A4A"/>
<path d="M38.7457 0L71.9608 18.1339L71.9997 38.6285L63.433 43.3305L66.1035 44.7488C65.6451 45.0706 65.0906 45.2735 64.6748 45.641L64.6228 45.613C64.3713 45.4781 63.6169 45.0019 63.3979 45.0663L63.3512 45.3596L63.3758 53.5987L62.8007 53.7877L62.827 63.3135L58.0586 65.9601L38.7188 77.0463L34.2341 74.5476L27.7718 70.8355L23.0367 68.134C21.0653 66.8929 19.2702 65.4838 17.6385 63.8284C13.0881 59.2116 10.5461 52.9418 10.0177 46.5613C9.87133 44.7927 9.92665 43.0009 9.94861 41.2277L9.99576 40.9803C9.98816 39.4095 10.3047 37.7697 10.6676 36.2467C12.2183 29.7382 16.0672 23.7023 21.5671 19.7736C23.001 18.7492 24.663 17.9885 26.2012 17.1231L31.357 14.2001L38.7183 10.0883L38.7457 0Z" fill="#2C2A4A"/>
<path d="M30.0701 35.0067C29.641 34.6142 28.9521 34.3252 28.4416 34.0342L22.8574 31.0032C23.338 30.6553 23.9095 30.382 24.4269 30.0874L28.104 28.0812L34.7884 24.3759L38.7714 22.1128L53.1517 30.0569L45.6763 34.0828L45.6353 34.0694C44.1599 33.0644 42.4645 32.2988 40.9027 31.4259C40.6211 31.2684 38.9922 30.24 38.8417 30.2812C38.3836 30.4065 37.7354 30.8881 37.3014 31.1201L32.6829 33.662C31.8252 34.1305 30.9726 34.628 30.0701 35.0067Z" fill="#80A1E2"/>
<path d="M30.0691 35.0065C30.9716 34.6278 31.8242 34.1303 32.6818 33.6618L37.3004 31.1199C37.7344 30.8879 38.3826 30.4063 38.8407 30.281C38.9911 30.2399 40.6201 31.2682 40.9017 31.4257C42.4635 32.2986 44.1589 33.0642 45.6343 34.0692L36.6373 38.9766L45.42 43.7795C44.5075 44.3676 43.5284 44.8569 42.5713 45.3697L38.4997 47.5722L37.3897 48.1694C37.1854 48.2752 36.9223 48.3711 36.7541 48.5268L45.5323 53.2027L38.6557 57.0475L30.0092 52.1041L30.0296 40.2815L30.022 36.7642C30.021 36.2152 29.945 35.5371 30.0691 35.0065Z" fill="#907AD6"/>
<path d="M38.7187 10.0884L45.7236 13.9594L54.7107 18.9072L59.1597 21.3841C60.3917 22.0796 61.6342 22.8543 62.9468 23.3891L62.9474 30.0041L62.9408 31.7218C62.9382 31.96 62.9741 32.2831 62.9136 32.5112L54.3083 37.1397L54.3435 28.8812L38.7651 20.309L21.9959 29.672C20.714 30.3733 19.4363 31.082 18.2371 31.9179C15.8737 33.5656 13.8122 35.602 12.0878 37.8967C11.3416 38.8896 10.7578 40.0096 9.99623 40.9804C9.98863 39.4095 10.3052 37.7698 10.6681 36.2468C12.2187 29.7383 16.0676 23.7024 21.5676 19.7737C23.0015 18.7492 24.6635 17.9886 26.2016 17.1232L31.3575 14.2002L38.7187 10.0884Z" fill="#907AD6"/>
<path d="M38.7467 0L71.9619 18.1339L72.0007 38.6285L63.434 43.3305C62.9751 43.4665 62.5538 43.7441 62.1395 43.9779L60.0844 45.1314L49.5706 50.9627L46.9932 52.4213C46.5303 52.6841 46.0293 53.0181 45.5337 53.2029L36.7555 48.527C36.9237 48.3713 37.1868 48.2754 37.3911 48.1696L38.5011 47.5724L42.5727 45.3699C43.5297 44.8571 44.5089 44.3678 45.4213 43.7797L36.6387 38.9768L45.6357 34.0694L45.6767 34.0828C46.1868 34.4826 46.8385 34.7997 47.3986 35.1314C49.6127 36.4422 51.9895 37.539 54.146 38.9347L62.9112 34.0397C62.9942 33.5736 62.9215 32.9898 62.9142 32.5111C62.9747 32.2831 62.9388 31.9599 62.9413 31.7217L62.9479 30.0041L62.9474 23.389C61.6348 22.8543 60.3922 22.0795 59.1603 21.384L54.7113 18.9071L45.7241 13.9593L38.7193 10.0883L38.7467 0Z" fill="#DABFFF"/>
<path d="M9.99576 40.9803C10.7573 40.0095 11.3412 38.8895 12.0874 37.8966C13.8117 35.602 15.8732 33.5655 18.2366 31.9178C19.4358 31.0819 20.7135 30.3732 21.9954 29.6719L21.9863 49.097L21.9837 54.5651C21.9836 55.3705 21.8899 56.3177 22.0115 57.1067L34.1353 64.0926L37.3441 65.919C37.7618 66.1564 38.293 66.5518 38.7515 66.6739L54.3292 57.8946L54.297 50.1706L61.5745 46.1314C61.848 45.9869 62.5294 45.5029 62.8077 45.5022L62.8007 53.7877L62.827 63.3135L58.0586 65.9601L38.7188 77.0463L34.2341 74.5476L27.7718 70.8355L23.0367 68.134C21.0653 66.8929 19.2702 65.4838 17.6385 63.8284C13.0881 59.2116 10.5461 52.9418 10.0177 46.5613C9.87133 44.7927 9.92665 43.0009 9.94861 41.2277L9.99576 40.9803Z" fill="#DABFFF"/>
</svg>
